<?xml version="1.0" encoding="UTF-8"?>
<svg xmlns="http://www.w3.org/2000/svg" xmlns:xlink="http://www.w3.org/1999/xlink" viewBox="0 0 50 50" width="50px" height="50px">
<g id="surface18587267">
<path style="fill-rule:nonzero;fill:rgb(32.549021%,77.64706%,37.64706%);fill-opacity:1;stroke-width:10;stroke-linecap:butt;stroke-linejoin:round;stroke:rgb(0%,0%,0%);stroke-opacity:1;stroke-miterlimit:10;" d="M 165.117726 86.000001 C 165.117726 129.625662 129.625662 165.117726 86.000001 165.117726 C 72.960649 165.117726 60.077712 161.875663 48.630953 155.732805 L 11.148148 165.018189 C 10.877976 165.089287 10.593585 165.117726 10.323413 165.117726 C 9.39914 165.117726 8.503307 164.748017 7.849206 164.079697 C 6.996032 163.198083 6.683201 161.932541 7.010251 160.752316 L 17.077712 124.833665 C 10.394511 113.017197 6.882275 99.622355 6.882275 86.000001 C 6.882275 42.374339 42.374339 6.882275 86.000001 6.882275 C 129.625662 6.882275 165.117726 42.374339 165.117726 86.000001 Z M 126.980821 104.385913 C 126.468916 103.546958 125.118056 103.049273 123.084657 102.039683 C 121.065477 101.044313 111.069115 96.195437 109.20635 95.527117 C 107.343585 94.844577 105.992726 94.517527 104.641866 96.522487 C 103.291006 98.527448 99.394842 103.049273 98.214617 104.385913 C 97.020173 105.722554 95.839948 105.893189 93.806548 104.897818 C 91.773149 103.888228 85.232143 101.769511 77.482474 94.944114 C 71.439154 89.611773 67.358135 83.056548 66.177911 81.037368 C 64.997686 79.032408 66.049934 77.95172 67.059524 76.95635 C 67.983797 76.046297 69.092924 74.61012 70.116733 73.429895 C 71.126323 72.263889 71.467593 71.424934 72.150133 70.088294 C 72.818453 68.751654 72.477183 67.571429 71.965278 66.576059 C 71.467593 65.566469 67.400794 55.698082 65.708664 51.673942 C 64.073413 47.763559 62.395503 48.289683 61.14418 48.232805 C 59.949736 48.175926 58.598876 48.161707 57.248016 48.161707 C 55.897156 48.161707 53.693122 48.659392 51.830358 50.664352 C 49.967593 52.683532 44.720569 57.532408 44.720569 67.400794 C 44.720569 77.26918 52.000992 86.810517 53.010582 88.147157 C 54.034392 89.483797 67.343916 109.746694 87.70635 118.434855 C 92.555226 120.496694 96.337633 121.733797 99.295305 122.65807 C 104.1584 124.193784 108.580689 123.966271 112.092924 123.454366 C 115.989088 122.885583 124.108467 118.60549 125.800596 113.91303 C 127.492726 109.234789 127.492726 105.224869 126.980821 104.385913 Z M 126.980821 104.385913 " transform="matrix(0.274709,0,0,0.274709,1.375,1.375)"/>
<path style=" stroke:none;fill-rule:nonzero;fill:rgb(32.549021%,77.64706%,37.64706%);fill-opacity:1;" d="M 25 3.265625 C 13.015625 3.265625 3.265625 13.015625 3.265625 25 C 3.265625 28.742188 4.230469 32.421875 6.066406 35.667969 L 3.300781 45.535156 C 3.210938 45.859375 3.296875 46.207031 3.53125 46.449219 C 3.710938 46.632812 3.957031 46.734375 4.210938 46.734375 C 4.285156 46.734375 4.363281 46.726562 4.4375 46.707031 L 14.734375 44.15625 C 17.878906 45.84375 21.417969 46.734375 25 46.734375 C 36.984375 46.734375 46.734375 36.984375 46.734375 25 C 46.734375 13.015625 36.984375 3.265625 25 3.265625 Z M 35.933594 32.667969 C 35.46875 33.957031 33.238281 35.132812 32.167969 35.289062 C 31.203125 35.429688 29.988281 35.492188 28.652344 35.070312 C 27.839844 34.816406 26.800781 34.476562 25.46875 33.910156 C 19.875 31.523438 16.21875 25.957031 15.9375 25.589844 C 15.660156 25.222656 13.660156 22.601562 13.660156 19.890625 C 13.660156 17.179688 15.101562 15.847656 15.613281 15.292969 C 16.125 14.742188 16.730469 14.605469 17.101562 14.605469 C 17.472656 14.605469 17.84375 14.609375 18.171875 14.625 C 18.515625 14.640625 18.976562 14.496094 19.425781 15.570312 C 19.890625 16.675781 21.007812 19.386719 21.144531 19.664062 C 21.285156 19.9375 21.378906 20.261719 21.195312 20.628906 C 21.007812 20.996094 20.914062 21.226562 20.636719 21.546875 C 20.355469 21.871094 20.050781 22.265625 19.796875 22.515625 C 19.519531 22.789062 19.230469 23.085938 19.554688 23.636719 C 19.878906 24.191406 21 25.992188 22.660156 27.457031 C 24.789062 29.332031 26.585938 29.914062 27.144531 30.191406 C 27.703125 30.464844 28.027344 30.417969 28.355469 30.050781 C 28.679688 29.683594 29.75 28.441406 30.121094 27.890625 C 30.492188 27.339844 30.863281 27.429688 31.375 27.617188 C 31.886719 27.800781 34.632812 29.132812 35.1875 29.40625 C 35.746094 29.683594 36.117188 29.820312 36.257812 30.050781 C 36.398438 30.28125 36.398438 31.382812 35.933594 32.667969 Z M 35.933594 32.667969 "/>
</g>
</svg>
